<?xml version="1.0" encoding="utf-8"?>
<!-- Generator: Adobe Illustrator 17.0.0, SVG Export Plug-In . SVG Version: 6.00 Build 0)  -->
<!DOCTYPE svg PUBLIC "-//W3C//DTD SVG 1.1//EN" "http://www.w3.org/Graphics/SVG/1.1/DTD/svg11.dtd">
<svg version="1.1" id="Layer_1" xmlns="http://www.w3.org/2000/svg" xmlns:xlink="http://www.w3.org/1999/xlink" x="0px" y="0px"
	 width="96px" height="63.999px" viewBox="0 0 96 63.999" enable-background="new 0 0 96 63.999" xml:space="preserve">
<rect x="2.5" y="38.083" fill="#F1F2F2" width="92.833" height="19.833"/>
<g>
	<path fill="#58595B" d="M138.378,130.992h-22c-2.762,0-5,2.239-5,5v21.999c0,2.762,2.238,5,5,5h22c2.761,0,5-2.238,5-5v-21.999
		C143.378,133.231,141.139,130.992,138.378,130.992z M123.011,154.638h-3.431v-10.316h3.431V154.638z M121.295,142.913h-0.023
		c-1.15,0-1.894-0.794-1.894-1.783c0-1.013,0.768-1.784,1.939-1.784c1.174,0,1.896,0.771,1.918,1.784
		C123.235,142.119,122.491,142.913,121.295,142.913z M135.378,154.638h-3.43v-5.52c0-1.387-0.496-2.334-1.738-2.334
		c-0.946,0-1.512,0.641-1.76,1.256c-0.091,0.221-0.113,0.526-0.113,0.836v5.762h-3.429c0,0,0.044-9.35,0-10.316h3.429v1.461
		c0.457-0.704,1.271-1.703,3.092-1.703c2.256,0,3.949,1.474,3.949,4.644V154.638z"/>
	<path fill="#58595B" d="M128.337,145.816v-0.033c-0.006,0.012-0.015,0.023-0.022,0.033H128.337z"/>
</g>
<rect y="7.5" fill="#58595B" width="94.667" height="19.833"/>
<g>
	<path fill="#F1F2F2" d="M27,0H5C2.238,0,0,2.239,0,5V27c0,2.762,2.238,5,5,5h22c2.761,0,5-2.238,5-5V5C32,2.239,29.761,0,27,0z
		 M11.633,23.647H8.202V13.33h3.431V23.647z M9.917,11.921H9.895C8.744,11.921,8,11.127,8,10.138c0-1.013,0.768-1.784,1.939-1.784
		c1.174,0,1.897,0.771,1.918,1.784C11.857,11.127,11.113,11.921,9.917,11.921z M24,23.647h-3.43v-5.52
		c0-1.387-0.496-2.334-1.738-2.334c-0.946,0-1.512,0.641-1.76,1.256c-0.091,0.221-0.113,0.526-0.113,0.836v5.762H13.53
		c0,0,0.044-9.35,0-10.316h3.429v1.461c0.457-0.704,1.271-1.703,3.092-1.703c2.256,0,3.949,1.474,3.949,4.644V23.647z"/>
	<path fill="#F1F2F2" d="M16.959,14.824v-0.033c-0.006,0.012-0.015,0.023-0.022,0.033H16.959z"/>
</g>
<g>
	<path fill="#0A6C9B" d="M27,31.999H5c-2.762,0-5,2.24-5,5v22c0,2.762,2.238,5,5,5h22c2.761,0,5-2.238,5-5v-22
		C32,34.24,29.761,31.999,27,31.999z M11.633,55.646H8.202V45.33h3.431V55.646z M9.917,43.921H9.894C8.744,43.921,8,43.126,8,42.138
		c0-1.014,0.768-1.785,1.939-1.785c1.174,0,1.897,0.771,1.918,1.785C11.857,43.126,11.113,43.921,9.917,43.921z M24,55.646h-3.43
		v-5.52c0-1.387-0.496-2.334-1.738-2.334c-0.946,0-1.512,0.641-1.76,1.256c-0.091,0.221-0.113,0.527-0.113,0.836v5.762H13.53
		c0,0,0.044-9.35,0-10.316h3.429v1.461c0.457-0.703,1.271-1.703,3.092-1.703c2.256,0,3.949,1.475,3.949,4.645V55.646z"/>
	<path fill="#0A6C9B" d="M16.959,46.824v-0.033c-0.006,0.012-0.015,0.023-0.022,0.033H16.959z"/>
</g>
<path fill="#36609F" d="M59,31.999H37c-2.761,0-5,2.24-5,5v22c0,2.762,2.239,5,5,5h22c2.762,0,5-2.238,5-5v-22
	C64,34.24,61.762,31.999,59,31.999z M51.428,48.005h-2.242c0,3.584,0,7.994,0,7.994h-3.322c0,0,0-4.367,0-7.994h-1.58v-2.824h1.58
	v-1.828c0-1.307,0.621-3.354,3.353-3.354l2.461,0.01v2.742c0,0-1.496,0-1.786,0c-0.291,0-0.705,0.146-0.705,0.77v1.66h2.533
	L51.428,48.005z"/>
<path fill="#F1F2F2" d="M59,0H37c-2.761,0-5,2.239-5,5V27c0,2.762,2.239,5,5,5h22c2.762,0,5-2.238,5-5V5C64,2.239,61.762,0,59,0z
	 M51.428,16.006h-2.242c0,3.583,0,7.994,0,7.994h-3.322c0,0,0-4.367,0-7.994h-1.58v-2.824h1.58v-1.828
	c0-1.308,0.621-3.354,3.353-3.354l2.461,0.01v2.742c0,0-1.496,0-1.786,0c-0.291,0-0.705,0.146-0.705,0.769v1.66h2.533L51.428,16.006
	z"/>
<path fill="#F58020" d="M91,31.999H69c-2.761,0-5,2.24-5,5v22c0,2.762,2.239,5,5,5h22c2.761,0,5-2.238,5-5v-22
	C96,34.24,93.761,31.999,91,31.999z M74.155,55.982c-1.173,0-2.123-0.951-2.123-2.125c0-1.172,0.95-2.123,2.123-2.123
	c1.174,0,2.125,0.951,2.125,2.123C76.28,55.031,75.329,55.982,74.155,55.982z M79.485,55.996c0-2.004-0.776-3.887-2.185-5.301
	c-1.405-1.414-3.276-2.192-5.267-2.192v-3.066c5.799,0,10.518,4.736,10.518,10.559H79.485z M84.901,55.999
	c0-7.131-5.77-12.934-12.862-12.934v-3.066c8.783,0,15.929,7.178,15.929,16H84.901z"/>
<path fill="#F1F2F2" d="M91,0H69c-2.761,0-5,2.239-5,5V27c0,2.762,2.239,5,5,5h22c2.761,0,5-2.238,5-5V5C96,2.239,93.761,0,91,0z
	 M74.155,23.983c-1.173,0-2.123-0.951-2.123-2.125c0-1.173,0.95-2.123,2.123-2.123c1.174,0,2.125,0.95,2.125,2.123
	C76.28,23.031,75.329,23.983,74.155,23.983z M79.485,23.996c0-2.004-0.776-3.887-2.185-5.301c-1.405-1.414-3.276-2.192-5.267-2.192
	v-3.066c5.799,0,10.518,4.736,10.518,10.559H79.485z M84.901,24c0-7.131-5.77-12.934-12.862-12.934V8
	c8.783,0,15.929,7.178,15.929,16H84.901z"/>
<g>
</g>
<g>
</g>
<g>
</g>
<g>
</g>
<g>
</g>
<g>
</g>
</svg>
